<?xml version="1.0" encoding="UTF-8" standalone="no"?>
<!-- Created with Inkscape (http://www.inkscape.org/) -->

<svg
   xmlns:dc="http://purl.org/dc/elements/1.1/"
   xmlns:cc="http://creativecommons.org/ns#"
   xmlns:rdf="http://www.w3.org/1999/02/22-rdf-syntax-ns#"
   xmlns:svg="http://www.w3.org/2000/svg"
   xmlns="http://www.w3.org/2000/svg"
   xmlns:sodipodi="http://sodipodi.sourceforge.net/DTD/sodipodi-0.dtd"
   xmlns:inkscape="http://www.inkscape.org/namespaces/inkscape"
   width="30"
   height="5"
   id="svg2"
   version="1.1"
   inkscape:version="0.48.0 r9654"
   sodipodi:docname="New document 1">
  <defs
     id="defs4" />
  <sodipodi:namedview
     id="base"
     pagecolor="#ffffff"
     bordercolor="#666666"
     borderopacity="1.0"
     inkscape:pageopacity="0.0"
     inkscape:pageshadow="2"
     inkscape:zoom="7.9195959"
     inkscape:cx="33.016651"
     inkscape:cy="18.625116"
     inkscape:document-units="px"
     inkscape:current-layer="svg2"
     showgrid="false"
     inkscape:window-width="859"
     inkscape:window-height="584"
     inkscape:window-x="723"
     inkscape:window-y="106"
     inkscape:window-maximized="0" />
  <metadata
     id="metadata7">
    <rdf:RDF>
      <cc:Work
         rdf:about="">
        <dc:format>image/svg+xml</dc:format>
        <dc:type
           rdf:resource="http://purl.org/dc/dcmitype/StillImage" />
        <dc:title></dc:title>
      </cc:Work>
    </rdf:RDF>
  </metadata>
  <g
     inkscape:label="Layer 1"
     inkscape:groupmode="layer"
     id="layer1"
     transform="translate(0,-95)" />
  <g
     transform="matrix(0.06122386,0,0,0.08271055,0.7038311,-47.356124)"
     id="layer1-1">
    <path
       d="m 455.57,581.42 -63.113,4.5082 -14.346,13.88 c -101.31,0.74485 -202.62,1.498 -303.93,2.243 -0.86532,-1.134 -0.32764,-1.8567 0,-2.6428 l 12.725,-17.966 c -25.138,10.816 -49.773,23.07 -79.014,22.141 -2.7901,-0.10197 -1.2423,4.0705 0.8883,4.6414 27.383,3.0563 56.392,4.3598 74.062,17.832 1.2361,0.79625 4.1595,-3.1502 3.3089,-3.9529 l -7.954,-10.37 c -0.94969,-1.1528 0.36737,-1.3536 1.3324,-1.3103 l 298.98,-2.4428 19.565,12.791 59.138,0.77731 c 9.0497,-0.36085 3.5589,-5.9617 0.68839,-7.3285 l -15.967,-7.2396 c 1.6858,-3.0649 1.8573,-6.129 -0.39974,-9.1939 l 16.611,-11.148 c 1.5122,-0.70855 0.82476,-4.7449 -2.5761,-5.2188 z m -12.703,4.2861 c 0.0851,-0.0101 0.12628,0.0156 0.15542,0.0439 0.099,0.099 -0.43832,0.46063 -0.46632,0.48861 -0.22236,0.22231 -0.27395,1.2584 -0.64405,1.4434 -0.48189,0.24097 -1.033,0.54449 -1.4213,0.93269 -0.0975,0.0975 0.0192,0.92026 0.0888,0.95501 0.2274,0.11358 0.99034,-0.20897 1.1992,0 0.0512,0.0512 -0.20048,0.53525 -0.22208,0.62176 -0.049,0.19707 -0.0177,0.70626 -0.15542,0.84389 -0.66203,0.66191 -1.7837,0.73014 -2.6871,1.3324 -0.43036,0.28688 -0.66302,0.73983 -1.1325,1.0216 -0.98431,0.59049 -2.1695,0.51998 -3.1534,1.1104 -0.34374,0.20622 -0.55251,0.73928 -0.93271,0.86603 -1.3358,0.44526 -2.8866,0.61426 -4.175,1.0438 -1.3495,0.44975 -3.2034,-0.48578 -4.4859,0.15537 -0.47471,0.2374 -0.84323,0.74367 -1.3102,0.97714 -0.35516,0.17759 -0.99357,0.39396 -1.1104,0.51083 -0.3312,0.33114 -1.4454,-1.3552 -1.9765,-1.488 -1.3006,-0.32519 2.0086,-4.2465 -1.5101,-2.4872 -0.42933,0.21472 -0.77813,0.57028 -1.2658,0.73288 -0.40563,0.13516 -1.2046,0.33717 -1.5545,0.59963 -0.30864,0.23146 -0.78967,0.23777 -1.1326,0.46639 -2.5638,1.7091 -3.5558,1.4434 -6.4624,1.4434 -0.82713,0 -1.5989,-0.16662 -2.3762,0.22204 -0.36275,0.18134 -0.55249,0.54211 -0.86609,0.77732 -1.1777,0.88322 -2.7738,1.177 -4.2416,1.177 -0.32334,0 -1.2005,0.15409 -1.4657,-0.11102 -0.16106,-0.16113 2.972,-2.9498 3.5754,-3.5532 2.1186,-2.1187 6.5134,-4.9536 9.3937,-5.5297 1.2359,-0.24719 2.4598,-0.42679 3.6864,-0.77723 2.1411,-0.61179 3.907,-1.8784 6.0182,-2.3762 -0.0125,0.009 -0.0139,0.021 0.0221,0.0439 h 0.0221 c 0.27763,0.17585 1.5311,0.68797 1.6656,0.73287 1.2878,0.42917 2.227,-0.0887 3.5088,-0.0887 1.8106,0 -3.794,1.9611 -3.1979,3.1534 0.3562,0.7124 2.9081,0.56772 3.8641,0.35538 1.5491,-0.34422 8.6651,-2.114 9.3493,-2.7982 0.5443,-0.54431 2.0071,-1.5278 2.6871,-1.7544 0.33336,-0.11112 2.1135,-1.0211 2.7093,-1.0882 z m -36.087,1.7987 c 0.67154,-0.0384 1.6065,0.11111 2.0875,0.11111 0.40889,0 1.139,-0.10471 1.3546,0.11102 0.38641,0.38637 -0.56597,1.5802 -0.88829,1.6877 -1.1644,0.3882 -1.9277,0.7529 -3.0424,1.3103 -0.23612,0.11807 -0.90956,1.1306 -1.0438,1.3991 -0.31337,0.6267 -1.3941,1.0806 -1.8432,1.7544 -0.80545,1.2081 -3.8928,2.0497 -4.9745,3.1312 -0.51213,0.51211 -1.6069,-1.6354 -2.2652,-0.97714 -0.12665,0.12666 -1.4078,0.96836 -1.7988,0.57741 -0.24694,-0.247 -1.4561,-0.88413 -1.7766,-0.77723 -2.0275,0.67582 -9.1102,4.9694 -10.993,3.0868 -0.99217,-0.99223 2.7564,-3.5878 3.2201,-3.8197 0.65969,-0.32986 1.272,-1.3982 1.9542,-1.9098 0.55142,-0.41362 0.74197,-1.1927 1.3324,-1.4879 1.0709,-0.53544 2.2813,-1.1804 3.3089,-1.8654 0.29973,-0.19991 0.47587,-0.60448 0.82167,-0.77732 1.9812,-0.99067 6.4489,0.78235 2.7315,2.1319 0.18828,0.31386 0.69616,0.76955 0.95493,0.51084 1.034,-1.034 8.3053,-3.0867 10.304,-4.0861 0.13641,-0.0686 0.33134,-0.0983 0.55519,-0.11111 z m -328.58,0.955 c -4.4113,4.6945 -7.4458,9.4333 -15.767,13.991 l 8.7497,-0.0439 c -0.0097,0.0128 -0.01262,0.0311 -0.02213,0.0439 -0.27165,0.3594 -0.53382,0.75336 -0.77726,1.1325 -0.05478,0.0905 -0.1076,0.17604 -0.15545,0.26648 -14.86,-0.0137 -36.998,-0.0219 -36.998,-0.0219 15.42,-3.5507 30.087,-9.8674 44.97,-15.368 z m 356.74,12.392 c 0,0 -0.62298,1.2631 -0.15545,2.354 0.0337,0.0786 -2.5214,0.13671 -6.3513,0.19981 0.0366,-0.49026 0.0756,-1.3182 0.24429,-2.5316 l 6.2625,-0.0219 z m -20.808,0.0887 c 0.26121,0.28395 0.57239,0.56022 0.95491,0.79945 0.44917,0.2845 0.93115,0.52583 1.3991,0.77723 0.57094,0.31797 1.1875,0.5369 1.821,0.68843 0.17904,0.0348 0.35696,0.0503 0.53298,0.0887 h 0.0221 c 0.008,0 0.006,0.0183 0.0222,0.022 h 0.0221 c 0.0145,0.009 0.0213,0.0146 0.0444,0.0219 0.0489,0.0128 0.1114,0.021 0.15545,0.0439 0.0831,0.0329 0.17744,0.0814 0.33311,0.13324 -7.0688,0.0649 -16.458,0.10864 -27.582,0.15546 0.0712,-0.0412 0.1524,-0.0658 0.22208,-0.11102 0.0215,-2.7e-4 0.0114,0 0.11103,0 0.49837,0.009 0.99317,-0.0302 1.4879,-0.0887 0.0652,-0.009 0.13463,-0.0128 0.19987,-0.0219 1.7332,-0.24965 2.7379,-1.2595 3.1312,-2.4429 l 17.122,-0.0668 z m -32.8,0.13324 c 0.47605,0.66575 1.2036,1.2123 2.2652,1.4879 -0.0135,-0.009 0.03,0.0219 0.0444,0.0219 0.11636,0.043 0.23715,0.0722 0.35531,0.11111 0.24511,0.0805 0.48593,0.16973 0.73284,0.24426 0.51472,0.16269 1.0174,0.32593 1.5323,0.48853 0.25524,0.10068 0.39615,0.1647 0.62181,0.24435 0.0226,0.009 0.0446,0.0146 0.0666,0.0219 -22.876,0.0878 -51.899,0.14476 -84.077,0.17759 0.1921,-0.81993 0.0896,-1.685 -0.26648,-2.4428 l 19.187,-0.0887 c 0.28725,0.12665 0.5858,0.22853 0.88829,0.31093 0.0704,0.0192 -0.10848,-0.0146 -0.22207,-0.0439 0.50936,0.18033 1.0402,0.23593 1.5767,0.26648 0.31833,0.011 0.6364,0.0229 0.95492,0.0219 h 0.33312 0.0221 c 0.22879,0.0814 0.35209,0.14046 0.51077,0.17768 0.0535,0.0174 0.1013,0.0302 0.15545,0.0439 0.0175,0.009 0.0251,-0.009 0.0444,0 0.27686,0.0732 0.55977,0.13983 0.84388,0.17769 0.39651,0.0448 0.80095,0.0439 1.1992,0.0439 0.25175,0 0.50329,3.7e-4 0.75505,0 0.31242,-3.7e-4 0.62029,9e-5 0.93271,0 h 0.82167 0.64402 c 0.32492,0.12547 0.64642,0.24655 0.97712,0.35528 0.44877,0.15354 0.89126,0.29611 1.3546,0.39973 0.7557,0.13937 1.4974,0.0768 2.2208,-0.13325 0.41248,-0.11806 0.30599,-0.0887 0.3109,-0.0887 0.13728,-3.6e-4 0.28465,-9e-5 0.42194,0 0.0393,0.009 0.0461,0.009 0.11104,0.022 h 0.0222 c 0.37897,0.12117 0.76204,0.20988 1.1548,0.26649 0.54896,0.054 1.1465,0.0928 1.6878,-0.0439 0.2587,-0.0658 0.49933,-0.14586 0.75505,-0.22204 h 0.11103 c 0.23284,-0.009 0.47775,-0.0219 0.71064,-0.0219 0.32391,4.6e-4 0.631,0 0.95491,0 0.22749,-2.8e-4 0.46094,-9e-5 0.68843,0 0.31617,9e-5 0.63876,0 0.95493,0 0.72525,0.0302 1.4435,-0.0658 2.1541,-0.19991 0.0512,-0.011 0.11586,-0.032 0.17766,-0.0439 0.49262,0.1048 0.98616,0.12647 1.4879,0.13324 0.49257,0.0119 0.99644,0.0101 1.4879,-0.0219 0.0836,0 0.44874,-0.0594 0.53299,-0.0668 0.17839,0 0.35456,3.7e-4 0.53297,0 0.59676,9e-5 1.1798,-2.7e-4 1.7766,0 0.5561,0.011 1.114,-0.0119 1.6656,-0.0887 0.79897,-0.11632 1.5531,-0.40585 2.1763,-0.93269 0.16574,-0.1401 0.29909,-0.30553 0.44414,-0.4663 l 25.205,-0.11111 z m -101.15,0.44408 c 0.0653,0.0402 0.13425,0.0713 0.19987,0.11102 0.42046,0.26968 0.83342,0.55912 1.2436,0.84389 0.46332,0.34998 0.95379,0.66036 1.4657,0.93269 0.33575,0.16955 0.67934,0.33306 1.0216,0.48862 -5.4117,0.009 -10.867,0 -16.367,0 7.1e-4,-0.0448 -0.002,-0.0905 0,-0.13324 -0.007,-0.17659 -0.0111,-1.1883 -0.0221,-2.1985 l 12.458,-0.0439 z m -14.457,0.0668 h 0.35531 c 0.007,0.72098 0.0163,1.5022 0.0222,1.5989 -0.12599,-0.0925 -0.25207,-0.81491 -0.37753,-1.5989 z m -5.3964,0.0219 c -0.055,0.79707 -0.12016,1.5294 -0.17766,1.6878 -0.0238,0.0521 -0.0394,0.10562 -0.0666,0.15537 -0.004,0.009 -0.0178,0.0155 -0.0222,0.0219 l -0.42194,0.022 c 0.0274,0.0576 0.0614,0.11934 0.0888,0.17769 0.0421,0.0896 0.10353,0.15509 0.15545,0.22203 -12.364,0.009 -24.155,0.021 -36.598,0.0219 0.0313,-0.043 0.0594,-0.0896 0.0888,-0.13324 0.18214,-0.26648 8.9164,-1.7888 9.0828,-2.0653 l 27.87,-0.11102 z m -37.442,0.15537 c -0.20236,0.37293 -0.40405,0.74659 -0.6218,1.1104 -0.17746,0.26621 -0.33585,0.56909 -0.53299,0.82176 -0.0482,0.0796 -0.10122,0.15135 -0.15545,0.22204 -2.3542,2.8e-4 -4.5805,0 -6.9287,0 0.013,-0.0594 0.0389,-0.11651 0.0444,-0.17768 0.0694,-0.37614 0.18891,-0.73581 0.2665,-1.1104 0.0663,-0.28258 0.13191,-0.55958 0.17765,-0.84381 l 7.7504,-0.0219 z m -9.3715,0.0439 c -0.0402,0.25981 -0.0918,0.51642 -0.15546,0.77732 -0.0858,0.37759 -0.23707,0.75226 -0.3109,1.1325 -0.006,0.0713 -0.028,0.13498 -0.0444,0.19991 -4.8432,9e-5 -9.5035,5.5e-4 -14.302,0 0.15619,-0.10151 0.31623,-0.19644 0.46636,-0.31093 0.21817,-0.17769 0.34842,-0.41509 0.46635,-0.66621 0.14573,-0.27517 0.2878,-0.54321 0.46636,-0.79945 0.0576,-0.097 0.11466,-0.19488 0.17766,-0.2887 l 13.236,-0.0439 z m -16.522,0.0668 c -0.12647,0.17851 -0.26108,0.35254 -0.37754,0.53297 -0.13957,0.23466 -0.3071,0.45185 -0.39973,0.71065 -0.0675,0.25496 -0.0652,0.51568 -0.0666,0.77723 -2e-5,0.009 0,0.0146 0,0.022 -3.2413,-2.8e-4 -6.4724,7.3e-4 -9.6824,0 0.005,-0.0585 0.0138,-0.11934 0.0221,-0.17769 0.0535,-0.37704 0.0969,-0.75327 0.13325,-1.1326 0.0322,-0.2289 0.073,-0.46173 0.11104,-0.68834 l 10.26,-0.0439 z m -11.881,0.0439 c -0.0416,0.22149 -0.0792,0.44188 -0.11104,0.6663 -0.0314,0.38043 -0.0788,0.7551 -0.13325,1.1326 -0.01,0.0658 -0.015,0.13324 -0.0221,0.19982 -10.754,0 -21.255,0.009 -31.468,0 2e-5,-0.20311 -4.1e-4,-0.39433 0,-0.59954 0,-0.22186 0.002,-0.44445 0,-0.6663 -0.004,-0.19863 -0.0187,-0.40119 -0.0444,-0.59964 l 31.779,-0.13324 z m -33.422,0.15556 c 0.0262,0.19048 0.0413,0.38792 0.0444,0.57732 0.002,0.22085 4.4e-4,0.44545 0,0.6663 -4.4e-4,0.20521 1e-5,0.39643 0,0.59954 -1.3866,-5.5e-4 -2.4906,7.3e-4 -3.8641,0 7e-5,-0.0521 -3.4e-4,-0.1027 0,-0.15547 0.002,-0.23127 0.0114,-0.47947 0,-0.71056 -0.0209,-0.32492 -0.0654,-0.63959 -0.13324,-0.955 l 3.9529,-0.0219 z m -7.3729,0.0219 h 1.7766 c 0.0665,0.32245 0.11726,0.64718 0.13325,0.97704 0.008,0.2278 0.002,0.46054 0,0.68843 -3.1e-4,0.053 -1e-4,0.10416 0,0.15547 -0.0236,0 -0.0432,9e-5 -0.0666,0 -0.0708,-0.23027 -0.14659,-0.4589 -0.22206,-0.68844 -0.0769,-0.18171 -0.15292,-0.36223 -0.31091,-0.48861 -0.14291,-0.15437 -0.33555,-0.28422 -0.53298,-0.35528 -0.25891,-0.10361 -0.51677,-0.19506 -0.77725,-0.28861 z m 186.34,0 c 0.0362,0.0155 0.0746,0.0293 0.11103,0.0439 -0.0228,-0.009 -0.0187,0.009 -0.0444,0 -0.0272,-0.009 -0.0927,-0.0558 -0.0666,-0.0439 z m -191.09,0.022 h 2.6649 0.0221 c 0.40251,0.17924 0.8295,0.31742 1.2436,0.46639 0.18748,0.0604 0.35558,0.16982 0.51077,0.2887 0.14661,0.11486 0.23589,0.25496 0.3109,0.42186 0.0756,0.20393 0.11678,0.41399 0.17766,0.62185 -0.047,0 -0.0863,10e-5 -0.13324,0 -0.0307,-0.011 -0.0572,-0.0338 -0.0888,-0.0439 -0.21621,-0.064 -0.43487,-0.11641 -0.64402,-0.19981 -0.24846,-0.1 -0.49761,-0.19086 -0.75505,-0.26649 -0.37279,-0.12702 -0.73722,-0.26401 -1.0882,-0.44417 -0.31609,-0.13717 -0.64658,-0.25788 -0.97713,-0.35528 -0.18665,-0.0366 -0.35842,-0.10452 -0.53298,-0.17768 -0.082,-0.0457 -0.18286,-0.0476 -0.26648,-0.0887 -0.22357,-0.107 0.0829,0.0174 -0.15545,-0.11111 -0.0326,-0.0174 -0.0769,-0.0311 -0.11104,-0.0439 -0.0568,-0.0274 -0.11905,-0.0439 -0.17766,-0.0668 z m -2.1541,0.0219 c 0.23667,0.075 0.47933,0.13324 0.71063,0.22213 0.17876,0.0722 0.33079,0.1967 0.51078,0.26648 0.17531,0.0814 0.36984,0.14367 0.55518,0.19982 0.33521,0.0823 0.65698,0.20493 0.97712,0.33315 0.35679,0.16799 0.71816,0.30754 1.0882,0.44417 0.24765,0.0887 0.5103,0.16954 0.75505,0.26648 0.0283,0.011 0.0605,0.011 0.0888,0.022 -9.7864,-0.009 -19.062,0.009 -27.959,0 -7.1e-4,-0.009 0.002,-0.0137 0,-0.022 -0.002,-0.0302 0.003,-0.0585 0,-0.0887 0.28882,-0.009 0.57687,0.0101 0.86609,0 0.11757,-0.009 0.0539,-0.23045 0.0445,-0.26648 -0.0534,-0.0393 -0.11742,-0.0649 -0.17766,-0.0887 0.1023,-0.0256 0.20059,-0.0704 0.24428,-0.17769 0.0262,-0.21244 -0.1442,-0.28093 -0.3109,-0.35528 -0.22645,-0.0869 -0.47123,-0.10114 -0.71065,-0.11111 h -0.26648 c -0.0614,-0.13388 -0.14976,-0.26621 -0.24428,-0.37751 -0.04,-0.0658 -0.0875,-0.11778 -0.13325,-0.17759 l 23.962,-0.0887 z m -25.672,0.0887 c 0.0863,0.0759 0.15456,0.17311 0.22208,0.26648 0.0691,0.0905 0.11941,0.19131 0.17766,0.28861 -0.1191,3.7e-4 -0.23624,0 -0.35532,0 -0.18478,-0.0585 -0.37517,-0.12729 -0.55519,-0.19981 -0.12142,-0.0128 -0.25986,-0.14486 -0.37753,-0.15547 -0.0393,0 -0.007,0.0941 0,0.13324 l -0.3109,-0.0439 c -0.11623,-0.0832 -0.22806,-0.17137 -0.33311,-0.26648 l 1.5323,-0.022 z m -3.2645,0.022 c 0.15002,0.16607 0.30677,0.33196 0.48857,0.4663 0.18385,0.13543 0.3802,0.26035 0.57739,0.3775 -0.10488,0.0338 -0.20605,0.0777 -0.31091,0.11102 -0.0906,-0.0165 -0.17791,-0.0183 -0.26648,-0.0439 -0.24431,-0.0366 -0.46923,-0.12721 -0.71064,-0.1776 -0.38706,-0.11047 -0.77318,-0.17777 -1.177,-0.17768 -0.8732,-0.0585 -1.7679,-0.0466 -2.6427,-0.0439 -0.28493,-0.009 -0.56911,-0.0302 -0.84388,-0.11102 -0.35176,-0.10462 -0.69891,-0.23978 -1.0438,-0.37751 l 5.9294,-0.0219 z m -8.0613,0.0439 c 0.0806,0.032 0.16349,0.0558 0.24428,0.0887 0.42905,0.18335 0.86726,0.3422 1.3102,0.48852 0.27118,0.0915 0.55946,0.13562 0.84388,0.15546 0.70532,0.0219 1.404,0.0283 2.1097,0.0219 0.0361,0.009 0.10845,0.0128 0.26649,0.022 0.092,0.009 0.1967,0.0146 0.2887,0.0219 0.3901,0.0183 0.77549,0.0366 1.1548,0.13324 0.2393,0.0567 0.4715,0.12081 0.71064,0.17769 0.26273,0.0704 0.5299,0.10928 0.79946,0.13324 -0.13685,-9e-5 -0.26288,9e-5 -0.39973,0 h -2.1763 c -0.80725,-0.009 -1.6134,-0.009 -2.4206,0 -0.24149,0.009 -0.48563,-0.011 -0.71065,0.0887 -0.0955,0.086 -0.13027,0.16644 -0.11104,0.24435 -4.9142,0 -6.641,0.009 -11.148,0 -0.16636,-0.12016 -0.33962,-0.24755 -0.51077,-0.35528 -0.22446,-0.13909 -0.47652,-0.16726 -0.73284,-0.1999 -0.22289,-0.0466 -0.43942,-0.0704 -0.66623,-0.0887 -0.28055,-0.0146 -0.56294,-0.021 -0.84389,-0.0219 -0.689,7.3e-4 -1.3763,0 -2.0653,0 0.0438,-5.5e-4 -0.08989,-0.0146 -0.13324,-0.0219 -0.13536,-0.0201 -0.2687,-0.0503 -0.39973,-0.0887 -0.24732,-0.0732 -0.48159,-0.19452 -0.71064,-0.31093 -0.1798,-0.0741 -0.27803,-0.1957 -0.37752,-0.35528 -0.02122,-0.043 -0.01363,-0.0613 0,-0.0668 h 0.15546 0.04444 l 15.479,-0.0668 z m -17.344,0.0668 c -0.0018,0.043 0.0046,0.10068 0.02213,0.15537 0.02496,0.0466 0.06164,0.0887 0.0888,0.13324 l -1.066,0.15556 c 0.52506,0.13644 1.0413,0.29044 1.5545,0.4663 0.29545,0.0957 0.57319,0.22633 0.84388,0.3775 0.13159,0.0787 0.26284,0.15482 0.39973,0.22213 -6.8002,-0.009 -7.5939,-0.0174 -13.014,-0.0219 0.03603,-0.0622 0.07197,-0.11541 0.11103,-0.17769 0.23795,-0.37558 0.48724,-0.755 0.75506,-1.1104 0.04134,-0.0558 0.08944,-0.10197 0.13324,-0.15547 l 10.171,-0.0439 z m 178.84,0.62174 c 0.0288,0.0238 0.0593,0.0439 0.0888,0.0668 0.20941,0.1861 0.37609,0.38564 0.55519,0.59954 0.0295,0.0357 0.043,0.10398 0.0888,0.11111 0.56369,0.0494 1.1222,0.0284 1.6878,0.0439 0.12809,-0.1154 0.18438,-0.27892 0.22207,-0.44407 0.19015,0.13845 0.38716,0.2834 0.5774,0.42185 0.0466,0.0357 0.0884,0.075 0.13324,0.11111 -1.2934,6.4e-4 -2.5451,-6.4e-4 -3.8419,0 0.16258,-0.14961 0.29813,-0.34019 0.35532,-0.53296 0.0439,-0.12501 0.0881,-0.25314 0.13324,-0.3776 z m -175.28,0.46639 h 0.17767 c 0.27798,0 0.56597,0.0146 0.84388,0.022 0.22594,0.0101 0.4455,0.0146 0.66623,0.0668 0.24358,0.054 0.50263,0.0421 0.73284,0.15547 0.09538,0.0549 0.19416,0.1197 0.2887,0.17768 -1.2318,-7.3e-4 -1.0243,7.3e-4 -2.2207,0 -0.15407,-0.0567 -0.30667,-0.12199 -0.46636,-0.15546 -0.18065,-0.043 -0.32799,-0.15537 -0.48857,-0.24426 0.15726,-0.009 0.30808,-0.0146 0.46636,-0.022 z m 18.143,0.35528 h 1.4213 1.1992 c -0.073,0.0247 -0.14918,0.0421 -0.22207,0.0668 -0.93965,-6.4e-4 -2.1158,6.4e-4 -3.0424,0 -0.0202,-0.009 -0.0396,-0.0302 -0.0666,-0.0439 0.2342,-0.022 0.47582,-0.022 0.71064,-0.022 z m 4.708,0 h 1.288 c 0.36942,0 0.74095,-2.7e-4 1.1104,0 0.0484,0.0265 0.10604,0.0393 0.15545,0.0668 -0.87565,-6.4e-4 -1.9106,5.5e-4 -2.7759,0 0.0735,-0.0238 0.14829,-0.043 0.22208,-0.0668 z m 322.12,2.9314 c 0.3954,0.23722 1.0192,0.0649 1.3102,0.35528 0.23358,0.23357 0.85165,0.64792 1.288,0.86612 0.41443,0.20713 1.6814,0.29813 1.8432,0.62186 0.4238,0.84755 2.6871,1.5588 2.6871,2.2429 0,1.918 -2.4845,0.22479 -3.2422,-0.53296 -0.27055,-0.2706 -1.8109,0.21198 -1.9765,0.3775 -0.0989,0.0989 -0.009,0.58171 -0.2887,0.48861 -1.0537,-0.35125 -0.41447,-0.85871 -0.99933,-1.4435 -0.97402,-0.97402 -3.598,-2.1392 -0.62181,-2.9758 z m -22.474,0.77723 c 2.6263,-0.0658 6.5157,0.19982 8.2167,0.19982 1.4435,0 7.4927,-0.31751 8.5276,0.19991 0.6758,0.3379 1.1106,1.3734 1.7544,1.9098 1.1346,0.9455 3.0571,1.4658 1.932,3.1535 -1.8205,2.7307 -7.1432,-0.12089 -9.0606,-1.3992 -0.43289,-0.28852 -2.4048,-1.1799 -2.6649,-0.39973 -0.49011,1.4704 2.9668,3.54 2.4206,4.0861 -0.19992,0.2 -0.79872,-0.51047 -0.99933,-0.57732 -0.6597,-0.21993 -1.331,-0.21563 -1.9542,0.19991 -0.45484,0.30316 -0.99727,0.51075 -1.6434,0.51075 -2.0373,0 -5.8048,-2.8358 -7.6394,-3.7531 -0.64355,-0.32172 -0.91136,-1.2223 -1.288,-1.5989 -0.53403,-0.53406 -1.8954,-0.71138 -2.1319,-1.4435 0.57135,0.0952 1.761,-0.71779 2.4428,-0.88834 0.47126,-0.11779 1.2121,-0.17778 2.0875,-0.19982 z m -23.074,0.26648 c 1.4529,0.0146 4.329,0.0869 4.3304,0.0887 0.41975,0.41967 0.82059,1.4131 1.3991,1.7987 0.41144,0.27435 1.1266,0.46584 1.4435,0.88834 0.43594,0.58125 0.36189,1.3456 0.68843,1.9986 0.21729,0.43466 1.1832,1.209 0.93271,1.71 -1.4981,2.9962 -6.9197,-2.3606 -8.4166,-3.109 -0.98085,-0.49053 -2.1502,-1.1509 -2.8426,-1.8432 -0.18007,-0.18006 -0.13793,-0.51029 -0.11104,-0.82167 -0.0636,0.0128 -0.098,0.0128 -0.11104,0 -0.11359,-0.11358 0.11104,-0.30581 0.11104,-0.46639 0.0235,0.12775 0.0146,0.29675 0,0.46639 0.40073,-0.0787 1.6504,-0.58445 1.7544,-0.68843 0.0124,-0.0119 0.33738,-0.0274 0.82167,-0.0219 z m 11.481,0.0439 c 0.68134,-0.0137 1.3028,0.0622 1.7544,0.28871 1.0603,0.53013 2.0054,1.3643 3.2423,1.7766 0.44911,0.1497 0.82485,1.5048 1.3324,1.8432 0.28812,0.19195 2.3142,1.834 2.243,1.9764 -0.19353,0.38711 -1.6879,0.15547 -2.1763,0.15547 -3.3007,0 -6.2703,-2.3043 -8.5276,-3.9973 -0.36314,-0.27234 -0.9289,-0.16086 -1.1326,-0.4664 -0.23965,-0.35939 0.1392,-1.2721 0.11104,-1.177 0.74309,-0.12382 2.0179,-0.37677 3.1534,-0.39973 z"
       style="fill:#433f33"
       id="path9976"
       inkscape:connector-curvature="0" />
  </g>
</svg>
