<svg
   xmlns:dc="http://purl.org/dc/elements/1.1/"
   xmlns:cc="http://creativecommons.org/ns#"
   xmlns:rdf="http://www.w3.org/1999/02/22-rdf-syntax-ns#"
   xmlns:svg="http://www.w3.org/2000/svg"
   xmlns="http://www.w3.org/2000/svg"
   xmlns:xlink="http://www.w3.org/1999/xlink"
   xmlns:sodipodi="http://sodipodi.sourceforge.net/DTD/sodipodi-0.dtd"
   xmlns:inkscape="http://www.inkscape.org/namespaces/inkscape"
   width="40"
   height="40"
   id="svg2"
   version="1.1"
   inkscape:version="0.48.0 r9654"
   sodipodi:docname="pattern.svg">
  <defs
     id="defs4">
    <filter
       inkscape:collect="always"
       id="filter3164"
       color-interpolation-filters="sRGB">
      <feGaussianBlur
         inkscape:collect="always"
         stdDeviation="1.0091826"
         id="feGaussianBlur3166" />
    </filter>
    <linearGradient
       inkscape:collect="always"
       x1="55.661999"
       y1="63.875"
       x2="59.353001"
       gradientUnits="userSpaceOnUse"
       xlink:href="#linearGradient3130"
       y2="64.739998"
       id="linearGradient3138" />
    <linearGradient
       inkscape:collect="always"
       x1="62.313999"
       y1="72.649002"
       x2="58.036999"
       gradientUnits="userSpaceOnUse"
       xlink:href="#linearGradient3130"
       y2="72.129997"
       id="linearGradient3136" />
    <linearGradient
       inkscape:collect="always"
       x1="67.688004"
       y1="25.875"
       x2="69"
       gradientUnits="userSpaceOnUse"
       xlink:href="#linearGradient2404"
       y2="17.062"
       id="linearGradient2547" />
    <linearGradient
       inkscape:collect="always"
       x1="62.125"
       y1="28.812"
       x2="68.5"
       gradientUnits="userSpaceOnUse"
       xlink:href="#linearGradient2404"
       y2="31.188"
       id="linearGradient2543" />
    <linearGradient
       inkscape:collect="always"
       x1="52.5"
       y1="35.312"
       x2="73"
       gradientUnits="userSpaceOnUse"
       xlink:href="#linearGradient2404"
       y2="40.312"
       id="linearGradient2539" />
    <linearGradient
       inkscape:collect="always"
       x1="82.853996"
       y1="104.56"
       x2="90.984001"
       gradientUnits="userSpaceOnUse"
       xlink:href="#linearGradient2338"
       y2="88.649002"
       id="linearGradient2535" />
    <linearGradient
       inkscape:collect="always"
       x1="49.297001"
       y1="117.45"
       x2="64.346001"
       gradientUnits="userSpaceOnUse"
       xlink:href="#linearGradient2338"
       y2="94.961998"
       id="linearGradient2531" />
    <linearGradient
       inkscape:collect="always"
       x1="27.521999"
       y1="101.36"
       x2="39.764999"
       gradientUnits="userSpaceOnUse"
       xlink:href="#linearGradient2338"
       y2="89.773003"
       id="linearGradient2527" />
    <linearGradient
       id="linearGradient2404">
      <stop
         offset="0"
         style="stop-color:#b49900"
         id="stop2406" />
      <stop
         offset=".5"
         style="stop-color:#ffda0a"
         id="stop2412" />
      <stop
         offset="1"
         style="stop-color:#c6a800"
         id="stop2408" />
    </linearGradient>
    <linearGradient
       id="linearGradient2338">
      <stop
         offset="0"
         style="stop-color:#b1b1b1"
         id="stop2340" />
      <stop
         offset="1"
         style="stop-color:#e4e4e4"
         id="stop2342" />
    </linearGradient>
    <linearGradient
       id="linearGradient3130">
      <stop
         offset="0"
         style="stop-color:#8dbbdc"
         id="stop3132" />
      <stop
         offset="1"
         style="stop-color:#dadada"
         id="stop3134" />
    </linearGradient>
  </defs>
  <sodipodi:namedview
     id="base"
     pagecolor="#ffffff"
     bordercolor="#666666"
     borderopacity="1.0"
     inkscape:pageopacity="0.0"
     inkscape:pageshadow="2"
     inkscape:zoom="5.6"
     inkscape:cx="38.252506"
     inkscape:cy="20.216697"
     inkscape:document-units="px"
     inkscape:current-layer="layer1"
     showgrid="false"
     inkscape:window-width="1511"
     inkscape:window-height="873"
     inkscape:window-x="1911"
     inkscape:window-y="-9"
     inkscape:window-maximized="1" />
  <metadata
     id="metadata7">
    <rdf:RDF>
      <cc:Work
         rdf:about="">
        <dc:format>image/svg+xml</dc:format>
        <dc:type
           rdf:resource="http://purl.org/dc/dcmitype/StillImage" />
        <dc:title></dc:title>
      </cc:Work>
    </rdf:RDF>
  </metadata>
  <g
     inkscape:label="Layer 1"
     inkscape:groupmode="layer"
     id="layer1"
     transform="translate(0,-1012.3622)">
    <g
       id="g3097"
       transform="matrix(0.25738061,0,0,0.25738061,4.3331568,1016.4347)">
      <g
         inkscape:label="colors"
         id="layer2">
        <path
           d="m 30.25,108.25 c -2.127,0.71 -11.287,-6.9 -6,-16.5 3.416,-6.201 13,-10.5 13,-10.5 l -6,-24 L 24,61.5 22,56.75 30.25,54 l -3,-4.75 7.25,-5.5 -0.25,8.5 L 41,50.5 42,54.25 36.75,56 40.5,78.25 c 0,0 6.25,-1.5 10,0.25 3.75,1.75 7.25,5 7.25,8.75 0,3.75 -22.25,25.75 -27.5,21 z"
           style="fill:#000000;fill-opacity:0.55655996;fill-rule:evenodd;filter:url(#filter3164)"
           sodipodi:nodetypes="csccccccccccccssc"
           id="path3158"
           inkscape:connector-curvature="0" />
        <path
           d="m 47.222,84.93 -4.152,-1.384 -3.978,1.903 -6.746,3.805 -1.557,1.557 -0.519,1.557 -1.038,1.902 -1.729,3.46 -1.038,2.075 1.211,3.975 2.94,3.29 H 32 l 1.384,-9.167 2.075,-4.152 3.633,-3.286 4.324,-2.422 3.806,-3.113 z"
           style="fill:url(#linearGradient2527);fill-rule:evenodd"
           id="path2525"
           inkscape:connector-curvature="0" />
        <path
           d="m 53.795,78.357 -1.73,1.384 -3.114,2.075 -1.729,3.114 -4.325,3.978 -5.016,2.768 -2.422,3.113 -3.286,6.401 v 5.71 l -0.692,2.94 c 0.587,2.77 2.091,3.25 3.287,4.5 0,0 2.94,1.38 4.151,2.42 1.211,1.03 3.286,0.69 5.016,1.73 1.73,1.03 4.843,1.55 4.843,1.55 l 4.671,2.08 5.189,2.59 3.286,0.7 4.671,-0.7 2.421,-1.21 3.114,-3.28 3.978,-2.25 2.768,-7.44 1.556,-5.71 -0.605,-4.5 -0.865,-2.158 -0.432,-5.794 -4.498,-4.844 -5.535,-2.594 -7.438,-3.287 -1.383,-2.767 -0.692,2.075 -2.422,0.173 -2.421,-1.729 -0.346,-1.038 z"
           style="fill:url(#linearGradient2531);fill-rule:evenodd"
           sodipodi:nodetypes="cccccccccccssccccccccccccccccccccc"
           id="path2529"
           inkscape:connector-curvature="0" />
        <path
           d="m 80.086,107.24 1.73,1.56 3.287,0.86 6.4,-1.38 3.286,-1.38 2.076,-1.73 -0.865,-5.365 -2.076,-5.189 -1.729,-3.978 -2.941,-3.287 -2.595,-1.729 -4.324,1.21 c 0,0 -3.286,0.519 -3.978,0.519 -0.692,0 -5.362,-0.173 -5.362,-0.173 l 4.324,3.114 1.038,2.422 0.519,3.805 -0.087,1.73 c 0.995,1.383 1.727,2.771 1.125,4.151 l 0.172,4.84 z"
           style="fill:url(#linearGradient2535);fill-rule:evenodd"
           sodipodi:nodetypes="ccccccccccccsccccccc"
           id="path2533"
           inkscape:connector-curvature="0" />
        <path
           d="m 62,39.25 h -6 -6 l 0.875,-1.75 1.25,-5.875 6,2.875 9.875,2.25 h 8 l -1.25,3.5 -1,4.25 -2.875,-2.125 -4.5,-2.5 L 62,39.25 z"
           style="fill:url(#linearGradient2539);fill-rule:evenodd"
           id="path2537"
           inkscape:connector-curvature="0" />
        <path
           d="m 60.5,34.75 c 0,0 1.375,-3.875 1.375,-4.375 0,-0.5 0.375,-6.625 0.375,-6.625 l 9.25,2.25 -1.875,2.625 -1.75,4 -0.25,3.75 -4.125,-0.75 -3,-0.875 z"
           style="fill:url(#linearGradient2543);fill-rule:evenodd"
           id="path2541"
           inkscape:connector-curvature="0" />
        <path
           d="m 62.25,23.875 -2,-1.875 0.25,-1.125 2.25,-0.125 4.75,0.125 c 0,0 3.25,0.75 4.875,1.5 1.625,0.75 2.75,2.375 2.75,2.375 l -0.75,0.625 -3,0.5 -4.625,-1 -4.5,-1 z"
           style="fill:url(#linearGradient2547);fill-rule:evenodd"
           id="path2545"
           inkscape:connector-curvature="0" />
        <path
           d="m 54.624,79.475 5.038,-40.482 4.42,0.353 -7.779,41.455 -1.679,-1.326 z"
           style="fill:url(#linearGradient3138);fill-rule:evenodd"
           sodipodi:nodetypes="ccccc"
           id="path2549"
           inkscape:connector-curvature="0" />
        <path
           d="m 63.816,39.612 -7.336,41.1 2.21,0.265 9.457,-40.481 -4.331,-0.884 z"
           style="fill:url(#linearGradient3136);fill-rule:evenodd"
           id="path2551"
           inkscape:connector-curvature="0" />
        <path
           d="m 47.222,84.93 -4.152,-1.384 -3.978,1.903 -6.746,3.805 -1.557,1.557 -0.519,1.557 -1.038,1.902 -1.729,3.46 -1.038,2.075 1.211,3.975 2.94,3.29 H 32 l 1.384,-9.167 2.075,-4.152 3.633,-3.286 4.324,-2.422 3.806,-3.113 z"
           style="fill:#000000;fill-opacity:0.15685999;fill-rule:evenodd"
           id="path3140"
           inkscape:connector-curvature="0" />
        <path
           d="m 32.875,102.88 1.25,-5.38 4.25,-6.75 0.875,0.25 -2.875,6 -0.125,6.75 c -1.066,-0.41 -1.715,-1.65 -3.375,-0.87 z"
           style="fill:#000000;fill-opacity:0.15685999;fill-rule:evenodd"
           sodipodi:nodetypes="ccccccc"
           id="path3142"
           inkscape:connector-curvature="0" />
        <path
           d="m 43.5,102.25 c 0,-0.5 1.5,-3 1.5,-3 l 5.75,-1 -1.25,3.13 1.625,10.5 c -1.387,-2.39 -1.508,-7.8 -4.375,-6.63 0.226,-2.96 -1.526,-2.96 -3.25,-3 z"
           style="fill:#000000;fill-opacity:0.15685999;fill-rule:evenodd"
           sodipodi:nodetypes="ccccccc"
           id="path3144"
           inkscape:connector-curvature="0" />
        <path
           d="m 13.875,103.38 c 2.929,2.87 1.991,3.98 1.375,5.24 5.794,-1.83 11.215,-3.11 14.375,-1 l -1.75,-3.5 -6.625,1.63 -3.375,-0.75 -4,-1.62 z"
           style="fill:#000000;fill-opacity:0.15685999;fill-rule:evenodd"
           sodipodi:nodetypes="ccccccc"
           id="path3146"
           inkscape:connector-curvature="0" />
        <path
           d="m 61.5,117.12 c 0.125,-0.5 3.75,-2.62 3.75,-2.62 l 3,-5.62 0.125,-3.63 3.875,5 -0.625,4.37 -1.375,4.38 c -1.321,-3.83 -5.108,-3.35 -8.75,-1.88 z"
           style="fill:#000000;fill-opacity:0.15685999;fill-rule:evenodd"
           sodipodi:nodetypes="cccccccc"
           id="path3148"
           inkscape:connector-curvature="0" />
        <path
           d="m 74.875,102.88 -4.75,-6.63 -4.5,-5.75 v 2.125 l 1,4.875 0.375,4.25 c 2.115,-4.47 5.152,-0.18 7.875,1.13 z"
           style="fill:#000000;fill-opacity:0.15685999;fill-rule:evenodd"
           sodipodi:nodetypes="ccccccc"
           id="path3150"
           inkscape:connector-curvature="0" />
        <path
           d="m 87.375,103.12 c 0.918,-3.448 3.007,-2.22 4.875,-1.87 l -3.625,-3 -2.375,-1.375 1.625,4.245 -0.5,2 z"
           style="fill:#000000;fill-opacity:0.15685999;fill-rule:evenodd"
           sodipodi:nodetypes="cccccc"
           id="path3152"
           inkscape:connector-curvature="0" />
        <path
           d="m 106.62,118.12 -4.5,-4.87 -1.5,-0.37 0.26,6 c 1.71,-2.71 3.7,-2 5.74,-0.76 z"
           style="fill:#000000;fill-opacity:0.15685999;fill-rule:evenodd"
           sodipodi:nodetypes="ccccc"
           id="path3154"
           inkscape:connector-curvature="0" />
        <path
           d="m 77.5,115.12 2.5,-7.74 3,2.24 h 3.125 c -3.279,0.9 -6.339,2.3 -8.625,5.5 z"
           style="fill:#000000;fill-opacity:0.15685999;fill-rule:evenodd"
           sodipodi:nodetypes="ccccc"
           id="path3156"
           inkscape:connector-curvature="0" />
      </g>
      <g
         inkscape:label="outline"
         id="layer1-0">
        <path
           d="M 61.625,3.9062 61.5,4.0938 c -0.652,4.2197 0.706,8.1042 2,12 l 0.375,-0.063 c -0.159,-4 -0.474,-8.1248 -2.25,-12.125 z M 41.562,4.25 c 2.17,4.8324 3.927,9.802 8,14 l 0.126,-0.125 C 48.395,13.458 45.151,8.9167 41.938,4.25 h -0.376 z m 48.094,1.375 c -3.53,2.6059 -7.114,5.104 -10,9 l 0.063,0.125 C 83.846,12.941 86.788,9.7918 89.594,6 L 89.656,5.625 z M 26.75,17.438 c 4.16,3.848 8.84,6.484 14,8 h 0.125 C 37.13,21.849 32.743,19.028 27,17.438 h -0.25 z m 35.906,2.843 c -0.659,0.017 -1.318,0.077 -1.968,0.219 -1.099,0.673 -0.849,1.238 -0.407,2.25 0.283,0.381 0.72,0.807 1.281,1.281 0.012,0.106 0.022,0.208 0.032,0.313 -0.611,0.479 -0.959,1.146 0.062,1.625 0.004,0.685 -0.027,0.772 -0.094,1.437 -0.931,0.173 -1.333,1.148 -0.156,1.906 -0.114,0.736 -0.273,1.213 -0.437,1.938 -0.571,-0.072 -1.094,0.58 -0.281,1.438 -0.177,0.707 -0.346,1.101 -0.532,1.812 l -8.844,-3.688 c 0.945,3.554 -0.389,6.282 -2,8.907 l 10.282,-0.031 -5.188,38.124 c -0.073,-0.009 -0.584,0.072 -0.656,0.063 l -1.188,1.313 c -1.487,0.096 -2.615,1.302 -3.718,2.406 l -0.063,0.031 -0.031,0.063 c -0.455,0.775 -0.947,1.476 -1.5,2.124 -2.004,-0.287 -3.804,-0.578 -5.688,0.157 V 84 c -0.008,0.006 -0.023,-0.006 -0.031,0 -3.999,2.019 -8.22,3.282 -11.156,6.844 -0.36,1.596 -1.005,3.316 -1.937,4.625 -0.951,1.266 -2.275,2.172 -2.438,3.937 0.13,1.214 0.52,2.374 0.969,3.504 -2.256,0.18 -4.336,1.38 -6.344,2.37 -0.437,-0.39 -2.037,-0.05 -2.875,-0.4 C 14.734,103 11.442,102.4 8,102.78 l -0.25,0.1 c 3.351,-0.05 6.708,0.87 9.688,2.37 0.674,0.33 2.244,0.61 3,0.72 -2.519,1.64 -6.083,2.82 -8.094,5.47 l 0.156,-0.03 c 2.053,-2.71 5.689,-3.11 8.594,-5.22 1.825,-1.03 4.421,-1.34 6.562,-1.66 0.764,1.35 1.522,3.2 3.188,4.09 -0.322,1.42 0.069,1.88 0.531,3 3.217,6.22 11.241,7.06 17.313,8.85 h 0.031 0.031 c 2.298,0.71 4.119,1.97 6.062,3.09 1.944,1.12 4.004,2.62 6.657,2.69 2.73,0.01 4.991,-0.17 7,-1.91 1.752,-1.78 3.515,-3.25 5.687,-4.5 3.324,-1.93 4.472,-5.97 5.25,-9.5 0.272,-0.77 0.507,-1.56 0.75,-2.34 0.893,1.04 2.113,1.98 3.656,2.06 h 0.063 0.031 c 2.075,-0.24 5.311,-0.41 8.125,-1.12 1.676,2.19 5.476,3.01 8.089,4.06 -0.126,1.89 0.79,4.17 0.69,6.06 l 0.1,-0.12 c 0.16,-1.83 0.11,-3.67 0.18,-5.5 1.1,0.57 2,1.19 2.44,1.78 1.14,1.51 3.41,4.09 4.66,5.34 l 0.22,-0.06 c -1.19,-1.19 -2.98,-4.43 -4.07,-5.88 -1.67,-1.85 -4.06,-2.73 -6.34,-3.62 3.98,-1.7 7.45,-1.25 11.38,-0.59 l -0.07,-0.07 c -5.66,-1.24 -7.97,-0.61 -12.748,-0.25 l -2.687,-1.78 c 3.24,-1.31 4.296,-3.76 3.031,-7.15 -0.915,-3.948 -2.58,-7.464 -5.031,-10.66 -1.488,-2.319 -2.905,-5.086 -6,-5.062 l -0.031,0.031 H 85.812 C 82.219,87.012 76.808,86.722 73.188,86.75 69.513,84.745 65.055,83.238 61,81.438 60.531,81.229 60.696,78.836 60.219,78.688 L 68,41.594 l 6.281,3.594 c -0.051,-3.033 0.698,-6.062 2.531,-9.094 -2.884,0.284 -6.033,0.274 -8.906,-0.032 0.045,-0.227 0.08,-0.461 0.125,-0.687 0.342,-0.227 0.517,-0.461 0.157,-0.687 0.149,-0.729 0.306,-1.436 0.5,-2.157 0.66,-0.205 0.664,-0.561 0.281,-1 0.146,-0.461 0.313,-0.916 0.5,-1.375 0.411,-0.156 1.036,-0.17 0.437,-1 0.16,-0.324 0.341,-0.644 0.532,-0.968 0.657,0.099 0.591,-0.403 0.562,-0.876 0.199,-0.29 0.395,-0.583 0.625,-0.874 0.918,0.277 2.509,-0.292 3.563,-0.688 0.921,-0.637 0.668,-0.964 0.374,-1.844 -2.039,-1.494 -4.597,-2.137 -7,-2.844 -1.928,-0.413 -3.928,-0.831 -5.906,-0.781 z m 0.875,0.844 c 1.599,-0.044 3.296,0.214 4.844,0.5 2.364,0.595 5.2,1.306 6.563,3.063 -1.075,0.686 -2.269,0.921 -3.563,0.906 -3.07,-0.506 -6.101,-1.091 -8.937,-2.063 -0.789,-0.48 -1.944,-1.082 -1.626,-1.937 0.826,-0.295 1.76,-0.443 2.719,-0.469 z m 37.309,3.406 c -4.663,0.826 -9.33,2.864 -13.996,5 l 0.187,0.313 c 4.851,-0.562 9.607,-2.568 14.129,-5.125 l -0.32,-0.188 z m -38.309,0.031 2.157,0.719 4.062,4.125 c -0.24,0.543 -0.631,1.647 -0.812,2.188 L 62.562,25.281 C 62.555,25.04 62.548,24.806 62.531,24.562 z m 3.688,0.844 2.406,0.688 1.156,1.375 c -0.203,0.334 -0.608,1.166 -0.781,1.5 l -2.781,-3.563 z m 3.875,0.906 0.375,0.094 c -0.046,0.063 -0.331,0.781 -0.375,0.844 v -0.938 z m -7.532,0.626 5.219,5.156 c -0.145,0.516 -0.383,1.768 -0.5,2.281 l -4.875,-5.719 c 0.076,-0.628 0.132,-1.071 0.156,-1.718 z m -0.312,2.968 4.844,4.844 c 0.211,-0.085 -0.101,0.898 -0.156,1.188 -0.221,-0.032 -1.312,-0.185 -1.532,-0.219 l -3.594,-3.781 c 0.152,-0.676 0.322,-1.339 0.438,-2.032 z m -9.656,2.969 c 7.109,2.968 14.843,4.817 22.625,4.469 l -1.781,6.094 C 64.955,37.127 58.254,38.83 51.094,38.469 l 1.5,-5.594 z m 8.937,0.187 2.969,2.469 c -1.132,-0.219 -2.258,-0.489 -3.375,-0.781 0.144,-0.555 0.268,-1.126 0.406,-1.688 z m -34.343,5.907 c -1.381,0.01 -2.802,0.102 -4.25,0.281 v 0.25 c 5.105,2.487 10.573,1.205 16,1.125 L 39.062,40.5 C 35.196,39.6 31.329,38.938 27.188,38.969 z m 32.656,0.562 3.875,0.563 L 56.188,80 c -0.44,-0.097 -0.886,-0.176 -1.313,-0.25 l 4.969,-40.219 z m 4.062,0.781 3.75,0.719 -9.062,39.531 -1.844,-0.312 7.156,-39.938 z m 20.188,1.188 -0.063,0.25 c 5.13,1.51 10.224,3.108 15.999,3 l 0.06,-0.25 c -4.706,-2.039 -10.301,-2.603 -15.996,-3 z m -3.719,9.156 -0.25,0.438 c 1.654,3.427 6.147,6.884 10,10.625 l 0.25,-0.063 c -3.063,-4.027 -5.978,-8.252 -10,-11 z m -39.531,0.875 c -6,0.694 -10.5,3.106 -16.5,5.75 l 0.062,0.438 c 5.44,-0.786 11.01,-2.918 16.625,-5.875 l -0.187,-0.313 z m 30.718,8.719 c 2.233,4.717 3.888,9.723 8,13.5 l 0.126,-0.5 c -1.374,-4.759 -4.994,-8.543 -7.876,-13 h -0.25 z M 46.156,60.875 C 42.578,63.301 39.123,65.93 36.531,70 l 0.063,0.25 c 4.404,-2.085 6.919,-5.657 9.75,-9 l -0.188,-0.375 z m 7.438,18.531 c 0.087,-0.028 0.172,-0.013 0.25,0 0.444,0.073 0.557,1.621 0.625,1.625 0.426,0.731 -0.034,0.88 0.719,1.313 0.88,0.506 1.883,0.881 2.874,1.281 1.983,0.799 3.824,1.658 4.469,3.406 0.932,1.186 1.463,2.59 2.031,3.969 0.599,1.879 1.543,4.102 1.844,6.188 -0.108,2.023 -0.393,4.032 0.438,5.872 0.526,0.88 0.566,2.12 1.062,2.91 0.036,1.48 0.308,2.29 -0.437,3.56 -1.121,3.67 -3.376,5.46 -6.25,7.44 l 0.031,0.25 c 3.562,-1.22 5.235,-4.13 7.094,-7.19 0.539,-0.92 0.627,-1.78 0.844,-2.84 0.318,0.55 1.003,1.06 1.374,1.72 0.311,0.54 0.604,1.07 0.813,1.53 0.209,0.45 0.313,0.87 0.313,0.97 -0.006,3.03 -0.857,6.4 -2.563,8.97 -1.706,2.56 -4.194,4.31 -7.625,4.34 -2.42,-0.07 -4.287,-0.94 -6.188,-2.03 -1.893,-1.09 -3.797,-1.87 -6.25,-2.63 -2.951,-1.21 -6.043,-2.59 -9.062,-3.62 1.31,-1.28 1.269,-2.48 2.562,-3.63 1.476,-1.31 2.746,-2.57 3.126,-4.09 0.557,-2.23 1.903,-4.91 3.374,-7.03 0.408,3.6 1.088,7.99 2.407,11.43 L 51.688,113 c -1.398,-3.65 -1.155,-7.89 -1.594,-11.84 0.673,-1.06 1.28,-2.173 1.718,-3.379 -0.046,-1.176 0.033,-2.248 0.657,-3.187 0.642,-0.642 1.909,-1.215 2.812,-2.125 l -0.093,-0.25 c -0.797,0.803 -2.231,1.137 -3,1.906 -0.719,0.717 -1.207,1.722 -1.282,3.187 -1.891,0.761 -3.949,0.981 -5.937,1.376 -1.235,0.972 -1.447,2.532 -1.781,4.002 l 0.25,0.43 c 0.151,-1.26 1.425,-2.87 2.093,-3.901 1.589,-0.451 3.163,-0.168 4.781,-0.5 -1.65,3.271 -4.668,6.041 -5.593,9.751 -0.28,1.12 -2.094,2.22 -3.531,3.5 -1.359,1.21 -1.401,2.26 -2.844,3.72 -2.321,-0.88 -4.72,-2.41 -6.032,-4.44 -0.569,-1.39 -0.505,-2.94 0.469,-5.16 -0.012,-5.59 1.761,-10.077 5.375,-14.246 -0.86,1.719 -1.843,3.81 -2.375,5.937 -0.509,2.211 -0.202,4.359 0.407,6.499 l 0.343,-0.16 c -0.54,-1.98 -0.369,-4.04 -0.187,-6.089 0.669,-2.607 3.293,-5.795 4.25,-7.687 3.637,-2.289 6.534,-4.033 8.937,-8.032 0.946,-0.946 1.422,-1.526 2.594,-1.624 0.086,-0.008 0.858,-1.085 1.469,-1.282 z M 59.719,80 c 0.053,-0.029 0.141,-0.027 0.219,0 0.295,0.102 0.665,2.517 0.968,2.625 3.893,1.386 8.523,3.348 11.688,5.063 0.242,0.295 1.043,0.578 1.5,0.843 1.902,1.015 3.015,2.327 3.687,3.907 0.672,1.579 0.898,3.42 0.969,5.468 1.976,4.084 0.979,8.014 -0.281,12.124 -0.518,3.64 -2.042,6.58 -4.813,8.97 -2.062,0.8 -3.161,2.45 -4.562,4.06 -0.628,0.52 -0.28,-0.72 -0.594,-0.56 1.96,-2.89 3.999,-7.68 4.188,-11.09 0,-0.45 -0.176,-0.87 -0.407,-1.38 -0.23,-0.5 -0.526,-1.07 -0.843,-1.62 -0.635,-1.12 -1.352,-2.25 -1.563,-2.72 -0.53,-1.19 -1.645,-2.27 -2.156,-3.13 -0.806,-1.34 -0.844,-3.708 -0.844,-5.279 V 97.25 97.219 c -0.173,-1.284 -0.718,-4.911 -1,-6.219 1.342,1.701 3.071,5.596 5.031,6.938 1.613,1.818 3.153,3.612 4.219,5.722 l 0.344,-0.22 c -1.138,-2.25 -2.193,-4.363 -3.813,-6.19 L 71.594,97.219 C 69.152,95.512 67.66,92.891 65.938,90.531 65.454,89.108 64.384,87.921 63.469,86.688 62.541,84.635 60.646,84.005 58.688,83.25 57.684,82.845 57.529,81.916 56.75,81.469 58.043,81.188 58.296,81.298 59,81.438 59.505,81.597 59.348,80.205 59.719,80 z m -16.938,4.188 c 1.048,0.017 2.132,0.602 3.125,0.937 -2.88,2.763 -5.976,4.334 -9.281,6.531 v 0.032 h -0.031 c -4.873,3.902 -3.305,10.062 -5.156,15.152 -1.413,-0.8 -2.324,-1.71 -2.969,-2.84 -1.777,-3.18 -1.601,-5.49 0.406,-8.375 0.902,-1.202 1.884,-2.516 2.313,-4.187 2.879,-3.205 6.876,-4.954 10.562,-7.032 0.334,-0.149 0.682,-0.224 1.031,-0.218 z m 43.344,1.687 c 2.56,0.191 3.724,3.405 5.031,5.313 2.571,2.876 3.749,6.503 4.782,10.222 v 0.03 l 0.031,0.06 c 1.524,3.12 -0.057,4.81 -2.813,6.06 -2.817,1 -6.758,1.21 -9.281,1.5 -1.564,-0.17 -2.41,-1.16 -3.406,-2.25 0.728,-2.93 0.056,-5.6 -1.5,-8.841 -0.073,-2.101 0.468,-4.176 -0.281,-5.938 -0.711,-1.669 -2.355,-2.909 -4.25,-4 1.825,0.006 4.317,-0.19 6.406,-0.406 1.981,0.913 2.998,1.924 3.75,3.969 0.304,1.959 0.353,3.925 1.625,5.5 0.195,1.226 0.806,2.831 1.156,4.186 0.159,1.05 0.013,1.95 -1.031,3.47 l 0.094,0.31 c 1.128,-1.65 2.129,-2.67 1.937,-3.94 -0.14,-0.92 -0.5,-1.818 -0.875,-2.932 1.755,1.171 3.577,2.042 5.062,3.532 v -0.38 c -1.448,-2.456 -4.544,-3.145 -6.468,-5.152 -0.492,-1.449 -0.228,-3.346 -0.532,-4.844 -0.356,-1.907 -0.908,-3.458 -2.468,-4.375 1.288,-0.214 1.918,-0.623 3.031,-1.094 z"
           style="fill:#000000;fill-rule:evenodd"
           id="path2308"
           inkscape:connector-curvature="0" />
      </g>
    </g>
  </g>
</svg>
